<mxfile host="app.diagrams.net" modified="2024-03-25T17:43:34.713Z" agent="Mozilla/5.0 (Windows NT 10.0; Win64; x64) AppleWebKit/537.36 (KHTML, like Gecko) Chrome/122.0.0.0 Safari/537.36 Edg/122.0.0.0" version="24.0.7" etag="1ciSQZiTGuqA8Ymc7t3t" type="github">
  <diagram name="Page-1" id="Opvda9y2Zobrfa77ZoOX">
    <mxGraphModel>
      <root>
        <mxCell id="0" />
        <mxCell id="1" parent="0" />
      </root>
    </mxGraphModel>
  </diagram>
</mxfile>
